<svg width="32" height="32" viewBox="0 0 32 32" fill="none" xmlns="http://www.w3.org/2000/svg">
<path d="M15.9998 28C18.6624 27.9996 21.2492 27.1137 23.353 25.4818C25.4568 23.8499 26.9582 21.5647 27.6207 18.9859C28.2832 16.407 28.0692 13.6811 27.0124 11.2373C25.9557 8.79341 24.1162 6.7704 21.7835 5.48674C19.4508 4.20308 16.7574 3.73166 14.1274 4.14671C11.4974 4.56177 9.08016 5.83971 7.25617 7.77936C5.43217 9.719 4.30506 12.2102 4.05227 14.8607C3.79948 17.5112 4.43537 20.1706 5.85984 22.42L3.99984 28L9.57984 26.14C11.4992 27.3584 13.7264 28.0036 15.9998 28Z" stroke="white" stroke-width="2" stroke-linecap="round" stroke-linejoin="round"/>
</svg>
