<svg width="25" height="26" viewBox="0 0 25 26" fill="none" xmlns="http://www.w3.org/2000/svg">
<g filter="url(#filter0_d_370_1070)">
<path fill-rule="evenodd" clip-rule="evenodd" d="M17.082 3.7216C17.082 2.92099 16.3815 2.27197 15.5173 2.27197H6.12915C5.26499 2.27197 4.56445 2.92099 4.56445 3.7216V12.9916L7.69385 11.2075V13.869C7.69385 14.6696 8.39439 15.3186 9.25854 15.3186H15.8671L20.2115 17.1762L20.2114 12.8335V8.07048C20.2114 7.26987 19.5109 6.62085 18.6467 6.62085H17.082V3.7216ZM7.69385 8.07048V9.5201H7.668L6.12915 10.3974V3.7216L15.5173 3.7216V6.62085H9.25854C8.39438 6.62085 7.69385 7.26987 7.69385 8.07048ZM18.6467 14.2832V8.07048L9.25854 8.07048V13.869H16.2108L18.6468 14.9106L18.6467 14.2832ZM11.6056 11.6945C12.0377 11.6945 12.3879 11.37 12.3879 10.9697C12.3879 10.5694 12.0377 10.2449 11.6056 10.2449C11.1735 10.2449 10.8232 10.5694 10.8232 10.9697C10.8232 11.37 11.1735 11.6945 11.6056 11.6945ZM14.735 10.9697C14.735 11.37 14.3847 11.6945 13.9526 11.6945C13.5206 11.6945 13.1703 11.37 13.1703 10.9697C13.1703 10.5694 13.5206 10.2449 13.9526 10.2449C14.3847 10.2449 14.735 10.5694 14.735 10.9697ZM16.2997 11.6945C16.7318 11.6945 17.082 11.37 17.082 10.9697C17.082 10.5694 16.7318 10.2449 16.2997 10.2449C15.8676 10.2449 15.5173 10.5694 15.5173 10.9697C15.5173 11.37 15.8676 11.6945 16.2997 11.6945Z" fill="#4E4E4E"/>
</g>
<defs>
<filter id="filter0_d_370_1070" x="-1" y="0.822266" width="26.7764" height="25.3955" filterUnits="userSpaceOnUse" color-interpolation-filters="sRGB">
<feFlood flood-opacity="0" result="BackgroundImageFix"/>
<feColorMatrix in="SourceAlpha" type="matrix" values="0 0 0 0 0 0 0 0 0 0 0 0 0 0 0 0 0 0 127 0" result="hardAlpha"/>
<feOffset dy="4"/>
<feGaussianBlur stdDeviation="2"/>
<feComposite in2="hardAlpha" operator="out"/>
<feColorMatrix type="matrix" values="0 0 0 0 0 0 0 0 0 0 0 0 0 0 0 0 0 0 0.25 0"/>
<feBlend mode="normal" in2="BackgroundImageFix" result="effect1_dropShadow_370_1070"/>
<feBlend mode="normal" in="SourceGraphic" in2="effect1_dropShadow_370_1070" result="shape"/>
</filter>
</defs>
</svg>
