<svg width="69" height="72" viewBox="0 0 69 72" fill="none" xmlns="http://www.w3.org/2000/svg">
<g filter="url(#filter0_d_280_774)">
<path d="M46.3 21.8H39.34V50H29.08V21.8H21.7L22.3 12.74H46.9L46.3 21.8Z" fill="white"/>
</g>
<g filter="url(#filter1_d_280_774)">
<path d="M56.3 27.4382H49.34V55.6382H39.08V27.4382H31.7L32.3 18.3782H56.9L56.3 27.4382Z" fill="url(#paint0_linear_280_774)"/>
</g>
<g filter="url(#filter2_d_280_774)">
<path d="M59.3 29.3176H52.34V57.5176H42.08V29.3176H34.7L35.3 20.2576H59.9L59.3 29.3176Z" fill="white"/>
</g>
<g filter="url(#filter3_d_280_774)">
<path fill-rule="evenodd" clip-rule="evenodd" d="M49.3531 53.1782L47.9802 49.9805L51.3563 48.0772C51.4942 47.9995 51.5931 47.8746 51.6311 47.7301C51.6691 47.5855 51.6432 47.4332 51.5591 47.3065C51.475 47.1798 51.3395 47.0892 51.1825 47.0546C51.0255 47.02 50.8598 47.0443 50.7219 47.122L47.3458 49.0253L44.8803 46.4434L55.6694 44.9894L49.3531 53.1782ZM46.6987 50.0465L48.3073 53.7958C48.3793 53.9635 48.4992 54.1101 48.6544 54.22C48.8095 54.33 48.9942 54.3993 49.1889 54.4206C49.3836 54.4419 49.5811 54.4145 49.7605 54.3411C49.9399 54.2677 50.0946 54.1512 50.2082 54.0038L57.0699 45.1083C57.1737 44.9734 57.2323 44.8136 57.2384 44.6487C57.2446 44.4838 57.1981 44.3209 57.1047 44.1802C57.0113 44.0396 56.8751 43.9273 56.7128 43.8573C56.5506 43.7873 56.3695 43.7626 56.192 43.7863L44.471 45.3666C44.2767 45.3927 44.0936 45.4665 43.941 45.5804C43.7884 45.6942 43.6719 45.8438 43.6039 46.0133C43.5359 46.1828 43.5189 46.366 43.5547 46.5434C43.5904 46.7208 43.6777 46.8859 43.8072 47.0212L46.6993 50.0461L46.6987 50.0465Z" fill="#940CFF"/>
</g>
<g filter="url(#filter4_d_280_774)">
<path d="M42.2297 53.2183C18.9749 68.1318 -4.27977 23.8113 17.607 18.35" stroke="#940CFF" stroke-width="2" stroke-linecap="round" stroke-dasharray="15 15"/>
</g>
<defs>
<filter id="filter0_d_280_774" x="12.7002" y="11.7402" width="37.1997" height="49.2598" filterUnits="userSpaceOnUse" color-interpolation-filters="sRGB">
<feFlood flood-opacity="0" result="BackgroundImageFix"/>
<feColorMatrix in="SourceAlpha" type="matrix" values="0 0 0 0 0 0 0 0 0 0 0 0 0 0 0 0 0 0 127 0" result="hardAlpha"/>
<feOffset dx="-3" dy="5"/>
<feGaussianBlur stdDeviation="3"/>
<feComposite in2="hardAlpha" operator="out"/>
<feColorMatrix type="matrix" values="0 0 0 0 0 0 0 0 0 0 0 0 0 0 0 0 0 0 0.26 0"/>
<feBlend mode="normal" in2="BackgroundImageFix" result="effect1_dropShadow_280_774"/>
<feBlend mode="normal" in="SourceGraphic" in2="effect1_dropShadow_280_774" result="shape"/>
</filter>
<filter id="filter1_d_280_774" x="22.7002" y="17.3784" width="37.1997" height="49.2598" filterUnits="userSpaceOnUse" color-interpolation-filters="sRGB">
<feFlood flood-opacity="0" result="BackgroundImageFix"/>
<feColorMatrix in="SourceAlpha" type="matrix" values="0 0 0 0 0 0 0 0 0 0 0 0 0 0 0 0 0 0 127 0" result="hardAlpha"/>
<feOffset dx="-3" dy="5"/>
<feGaussianBlur stdDeviation="3"/>
<feComposite in2="hardAlpha" operator="out"/>
<feColorMatrix type="matrix" values="0 0 0 0 0 0 0 0 0 0 0 0 0 0 0 0 0 0 0.26 0"/>
<feBlend mode="normal" in2="BackgroundImageFix" result="effect1_dropShadow_280_774"/>
<feBlend mode="normal" in="SourceGraphic" in2="effect1_dropShadow_280_774" result="shape"/>
</filter>
<filter id="filter2_d_280_774" x="25.7002" y="19.2578" width="37.1997" height="49.2598" filterUnits="userSpaceOnUse" color-interpolation-filters="sRGB">
<feFlood flood-opacity="0" result="BackgroundImageFix"/>
<feColorMatrix in="SourceAlpha" type="matrix" values="0 0 0 0 0 0 0 0 0 0 0 0 0 0 0 0 0 0 127 0" result="hardAlpha"/>
<feOffset dx="-3" dy="5"/>
<feGaussianBlur stdDeviation="3"/>
<feComposite in2="hardAlpha" operator="out"/>
<feColorMatrix type="matrix" values="0 0 0 0 0 0 0 0 0 0 0 0 0 0 0 0 0 0 0.26 0"/>
<feBlend mode="normal" in2="BackgroundImageFix" result="effect1_dropShadow_280_774"/>
<feBlend mode="normal" in="SourceGraphic" in2="effect1_dropShadow_280_774" result="shape"/>
</filter>
<filter id="filter3_d_280_774" x="34.5366" y="42.7773" width="25.7021" height="22.6504" filterUnits="userSpaceOnUse" color-interpolation-filters="sRGB">
<feFlood flood-opacity="0" result="BackgroundImageFix"/>
<feColorMatrix in="SourceAlpha" type="matrix" values="0 0 0 0 0 0 0 0 0 0 0 0 0 0 0 0 0 0 127 0" result="hardAlpha"/>
<feOffset dx="-3" dy="5"/>
<feGaussianBlur stdDeviation="3"/>
<feComposite in2="hardAlpha" operator="out"/>
<feColorMatrix type="matrix" values="0 0 0 0 0 0 0 0 0 0 0 0 0 0 0 0 0 0 0.26 0"/>
<feBlend mode="normal" in2="BackgroundImageFix" result="effect1_dropShadow_280_774"/>
<feBlend mode="normal" in="SourceGraphic" in2="effect1_dropShadow_280_774" result="shape"/>
</filter>
<filter id="filter4_d_280_774" x="0.46582" y="16.353" width="45.7671" height="51.7319" filterUnits="userSpaceOnUse" color-interpolation-filters="sRGB">
<feFlood flood-opacity="0" result="BackgroundImageFix"/>
<feColorMatrix in="SourceAlpha" type="matrix" values="0 0 0 0 0 0 0 0 0 0 0 0 0 0 0 0 0 0 127 0" result="hardAlpha"/>
<feOffset dx="-3" dy="5"/>
<feGaussianBlur stdDeviation="3"/>
<feComposite in2="hardAlpha" operator="out"/>
<feColorMatrix type="matrix" values="0 0 0 0 0 0 0 0 0 0 0 0 0 0 0 0 0 0 0.26 0"/>
<feBlend mode="normal" in2="BackgroundImageFix" result="effect1_dropShadow_280_774"/>
<feBlend mode="normal" in="SourceGraphic" in2="effect1_dropShadow_280_774" result="shape"/>
</filter>
<linearGradient id="paint0_linear_280_774" x1="32" y1="1.80954" x2="81.8002" y2="98.0643" gradientUnits="userSpaceOnUse">
<stop stop-color="#4FD0A9"/>
<stop offset="1" stop-color="#A93CF9"/>
</linearGradient>
</defs>
</svg>
