<svg width="32" height="32" viewBox="0 0 32 32" fill="none" xmlns="http://www.w3.org/2000/svg">
<path fill-rule="evenodd" clip-rule="evenodd" d="M14.4002 5.60023C12.0663 5.60023 9.82798 6.52737 8.17766 8.17769C6.52734 9.82801 5.6002 12.0663 5.6002 14.4002C5.6002 16.7341 6.52734 18.9724 8.17766 20.6228C9.82798 22.2731 12.0663 23.2002 14.4002 23.2002C16.7341 23.2002 18.9724 22.2731 20.6227 20.6228C22.2731 18.9724 23.2002 16.7341 23.2002 14.4002C23.2002 12.0663 22.2731 9.82801 20.6227 8.17769C18.9724 6.52737 16.7341 5.60023 14.4002 5.60023ZM3.2002 14.4002C3.20035 12.6093 3.62998 10.8445 4.45304 9.25393C5.27611 7.66333 6.46861 6.29331 7.93052 5.25878C9.39243 4.22425 11.0811 3.55539 12.8549 3.30829C14.6287 3.06119 16.4359 3.24307 18.1249 3.83866C19.8139 4.43426 21.3354 5.42621 22.5619 6.73129C23.7883 8.03638 24.6839 9.61655 25.1735 11.3393C25.6631 13.062 25.7325 14.877 25.3758 16.632C25.0191 18.387 24.2467 20.031 23.1234 21.4258L28.4482 26.7522C28.5661 26.8621 28.6607 26.9946 28.7262 27.1418C28.7918 27.289 28.8271 27.4479 28.8299 27.609C28.8328 27.7701 28.8031 27.9302 28.7428 28.0796C28.6824 28.229 28.5926 28.3647 28.4787 28.4787C28.3647 28.5926 28.229 28.6825 28.0795 28.7428C27.9301 28.8032 27.7701 28.8328 27.609 28.83C27.4478 28.8271 27.2889 28.7919 27.1417 28.7263C26.9945 28.6607 26.8621 28.5661 26.7522 28.4482L21.4258 23.1234C19.7803 24.4488 17.7934 25.2817 15.6946 25.5259C13.5958 25.7701 11.4708 25.4157 9.56491 24.5035C7.65903 23.5913 6.05007 22.1586 4.92383 20.3708C3.7976 18.583 3.20005 16.5132 3.2002 14.4002Z" fill="white"/>
</svg>
