<svg width="20" height="18" viewBox="0 0 20 18" fill="none" xmlns="http://www.w3.org/2000/svg">
<path fill-rule="evenodd" clip-rule="evenodd" d="M6.54982 5.96605L9.12901 2.86157C9.34562 2.60085 9.58654 2.36777 9.84654 2.16294C7.31798 0.574916 3.72104 1.18185 1.98651 3.6766C0.258185 6.16242 0.658072 9.46712 2.98451 11.5102L8.88267 16.69C9.73981 17.4428 11.0965 17.407 11.9058 16.6103C12.21 16.3107 12.3916 15.9473 12.4546 15.5711C12.9193 15.5275 13.3693 15.3304 13.708 14.9828C13.9773 14.7065 14.1377 14.3741 14.1915 14.031C14.5934 13.9753 14.9791 13.8001 15.2815 13.5072L15.316 13.4738C15.581 13.217 15.7462 12.9064 15.8133 12.5826C16.2755 12.5491 16.7276 12.3713 17.0845 12.0494C17.4573 11.7132 17.6825 11.3447 17.6993 10.8359C17.7161 10.3271 17.3982 10.0099 17.3982 10.0099L14.6784 7.13482L13.7309 6.15597L12.0006 7.87439C10.8533 9.01375 8.93661 9.1026 7.67234 8.07502L6.68776 7.27477C6.27647 6.94049 6.2161 6.36773 6.54982 5.96605ZM10.1778 3.2275L8.02146 5.88616C7.75062 6.2201 7.7947 6.68943 8.12373 6.97501L8.35085 7.17214C9.18827 7.89898 10.5035 7.85804 11.2864 7.08076L13.792 4.59309L18.1805 9.39497C20.389 7.43168 20.1532 4.098 17.6871 2.41844L17.4233 2.23875C15.1238 0.672701 11.8921 1.11371 10.1778 3.2275Z" fill="#5819A8"/>
</svg>
