<svg width="60" height="6" viewBox="0 0 60 6" fill="none" xmlns="http://www.w3.org/2000/svg">
<mask id="path-1-inside-1_370_1071" fill="white">
<path d="M46.6919 3L57.0005 3L46.6919 3Z"/>
</mask>
<path d="M46.6919 0C45.035 0 43.6919 1.34315 43.6919 3C43.6919 4.65685 45.035 6 46.6919 6V0ZM57.0005 6C58.6574 6 60.0005 4.65685 60.0005 3C60.0005 1.34315 58.6574 0 57.0005 0V6ZM46.6919 6L57.0005 6V0L46.6919 0V6Z" fill="#262626" fill-opacity="0.8" mask="url(#path-1-inside-1_370_1071)"/>
<mask id="path-3-inside-2_370_1071" fill="white">
<path d="M25.043 3L35.3516 3L25.043 3Z"/>
</mask>
<path d="M25.043 0C23.3861 0 22.043 1.34315 22.043 3C22.043 4.65685 23.3861 6 25.043 6V0ZM35.3516 6C37.0085 6 38.3516 4.65685 38.3516 3C38.3516 1.34315 37.0085 0 35.3516 0V6ZM25.043 6L35.3516 6V0L25.043 0V6Z" fill="#262626" fill-opacity="0.8" mask="url(#path-3-inside-2_370_1071)"/>
<mask id="path-5-inside-3_370_1071" fill="white">
<path d="M3.39551 3L13.7041 3L3.39551 3Z"/>
</mask>
<path d="M3.39551 0C1.73865 0 0.395508 1.34315 0.395508 3C0.395508 4.65685 1.73865 6 3.39551 6L3.39551 0ZM13.7041 6C15.361 6 16.7041 4.65685 16.7041 3C16.7041 1.34315 15.361 0 13.7041 0V6ZM3.39551 6L13.7041 6V0L3.39551 0L3.39551 6Z" fill="#262626" fill-opacity="0.8" mask="url(#path-5-inside-3_370_1071)"/>
</svg>
