<svg width="32" height="32" viewBox="0 0 32 32" fill="none" xmlns="http://www.w3.org/2000/svg">
<path d="M21.3332 28V25.3333C21.3332 23.9188 20.7713 22.5623 19.7711 21.5621C18.7709 20.5619 17.4143 20 15.9998 20H7.99984C6.58535 20 5.22879 20.5619 4.2286 21.5621C3.22841 22.5623 2.6665 23.9188 2.6665 25.3333V28" stroke="white" stroke-width="2" stroke-linecap="round" stroke-linejoin="round"/>
<path d="M11.9998 14.6667C14.9454 14.6667 17.3332 12.2789 17.3332 9.33333C17.3332 6.38781 14.9454 4 11.9998 4C9.05432 4 6.6665 6.38781 6.6665 9.33333C6.6665 12.2789 9.05432 14.6667 11.9998 14.6667Z" stroke="white" stroke-width="2" stroke-linecap="round" stroke-linejoin="round"/>
<path d="M29.333 28V25.3333C29.3321 24.1516 28.9388 23.0037 28.2148 22.0698C27.4908 21.1358 26.4772 20.4688 25.333 20.1733M21.333 4.17334C22.4802 4.46707 23.4971 5.13427 24.2232 6.06975C24.9493 7.00523 25.3435 8.15578 25.3435 9.34001C25.3435 10.5242 24.9493 11.6748 24.2232 12.6103C23.4971 13.5457 22.4802 14.2129 21.333 14.5067" stroke="white" stroke-width="2" stroke-linecap="round" stroke-linejoin="round"/>
</svg>
