<svg width="23" height="23" viewBox="0 0 23 23" fill="none" xmlns="http://www.w3.org/2000/svg">
<g clip-path="url(#clip0_452_869)">
<path d="M15.333 20.125V18.2083C15.333 17.1917 14.9291 16.2166 14.2103 15.4978C13.4914 14.7789 12.5163 14.375 11.4997 14.375H4.79134C3.77468 14.375 2.79965 14.7789 2.08077 15.4978C1.36188 16.2166 0.958008 17.1917 0.958008 18.2083V20.125" stroke="white" stroke-width="2" stroke-linecap="round" stroke-linejoin="round"/>
<path d="M8.14583 10.5417C10.2629 10.5417 11.9792 8.82542 11.9792 6.70833C11.9792 4.59124 10.2629 2.875 8.14583 2.875C6.02874 2.875 4.3125 4.59124 4.3125 6.70833C4.3125 8.82542 6.02874 10.5417 8.14583 10.5417Z" stroke="white" stroke-width="2" stroke-linecap="round" stroke-linejoin="round"/>
<path d="M19.167 7.6665V13.4165" stroke="white" stroke-width="2" stroke-linecap="round" stroke-linejoin="round"/>
<path d="M22.042 10.5415H16.292" stroke="white" stroke-width="2" stroke-linecap="round" stroke-linejoin="round"/>
</g>
<defs>
<clipPath id="clip0_452_869">
<rect width="23" height="23" fill="white"/>
</clipPath>
</defs>
</svg>
