<svg width="48" height="48" viewBox="0 0 48 48" fill="none" xmlns="http://www.w3.org/2000/svg">
<path d="M15.9824 0.499998H16.2788C26.4018 0.499998 31.2809 4.4899 32.1244 13.4273C32.2156 14.3621 31.5316 15.2056 30.5741 15.2968C29.6393 15.388 28.7957 14.6813 28.7045 13.7465C28.0433 6.58746 24.669 3.91992 16.256 3.91992H15.9596C6.68024 3.91992 3.39712 7.20304 3.39712 16.4824V31.3477C3.39712 40.6271 6.68024 43.9102 15.9596 43.9102H16.256C24.7146 43.9102 28.0889 41.1971 28.7045 33.9013C28.8185 32.9665 29.5937 32.2597 30.5741 32.3509C31.5316 32.4193 32.2156 33.2629 32.1472 34.1976C31.3721 43.2718 26.4702 47.3301 16.2788 47.3301H15.9824C4.78788 47.3301 -1.56855e-06 42.5422 -1.56855e-06 31.3477V16.4824C-1.56855e-06 5.28789 4.78788 0.499998 15.9824 0.499998Z" fill="white"/>
<path d="M16.8043 22.2051L46.17 22.2051C47.1048 22.2051 47.88 22.9803 47.88 23.915C47.88 24.8498 47.1048 25.625 46.17 25.625L16.8043 25.625C15.8696 25.625 15.0944 24.8498 15.0944 23.915C15.0944 22.9803 15.8468 22.2051 16.8043 22.2051Z" fill="white"/>
<path d="M21.8891 14.567C22.3223 14.567 22.7555 14.7266 23.0974 15.0686C23.7586 15.7298 23.7586 16.8242 23.0974 17.4854L16.668 23.9148L23.0974 30.3443C23.7586 31.0055 23.7586 32.0998 23.0974 32.761C22.4363 33.4222 21.3419 33.4222 20.6807 32.761L13.0429 25.1232C12.3817 24.462 12.3817 23.3676 13.0429 22.7064L20.6807 15.0686C21.0227 14.7266 21.4559 14.567 21.8891 14.567Z" fill="white"/>
</svg>
